# xmcd
#
# Track frame offsets:
# 150
# 22559
# 41266
# 59222
# 71563
#
# Disc length: 1210 seconds
#
#
# Revision: 0
# Processed by: cddbd v1.5.2PL0 Copyright (c) Steve Scherf et al.
# Submitted via: FreeRIP 2.945 
#
DISCID=3904b805
DTITLE=Andrew Goldring - The Other Side
DYEAR=2009
DGENRE=Blues
TTITLE0=Mask
TTITLE1=Captain Nemo and the Adventures of the Nautilus Missile
TTITLE2=Weight
TTITLE3=Crippled Blues
TTITLE4=A Body Broken
EXTD=Pig's Snout Music, Inc.\nUPC 8-80074-16253-4\n
EXTT0=
EXTT1=
EXTT2=
EXTT3=
EXTT4=
PLAYORDER=
